<svg width="167" height="166" viewBox="0 0 167 166" fill="none" xmlns="http://www.w3.org/2000/svg">
<path d="M83.1055 166C128.945 166 166.105 128.84 166.105 83C166.105 37.1604 128.945 0 83.1055 0C37.2658 0 0.105469 37.1604 0.105469 83C0.105469 128.84 37.2658 166 83.1055 166Z" fill="white"/>
<path d="M63.3717 121.349L34.2598 89.24C33.1855 88.0552 32.6253 86.4925 32.7023 84.8951C32.7793 83.2976 33.4872 81.796 34.6704 80.72L42.7593 73.3702C43.9441 72.2959 45.5068 71.7357 47.1043 71.8127C48.7018 71.8897 50.2034 72.5975 51.2794 73.7808L68.8122 93.0792L117.099 48.1796C118.271 47.0924 119.826 46.5143 121.423 46.5721C123.02 46.6298 124.529 47.3186 125.619 48.4875L133.051 56.4943C133.592 57.0732 134.013 57.7531 134.291 58.4951C134.568 59.2372 134.696 60.0267 134.667 60.8183C134.639 61.61 134.454 62.3882 134.124 63.1083C133.794 63.8283 133.324 64.4761 132.743 65.0144L71.8507 121.637C71.2766 122.178 70.6011 122.599 69.8632 122.878C69.1253 123.156 68.3396 123.286 67.5513 123.259C66.763 123.233 65.9878 123.05 65.2705 122.722C64.5531 122.394 63.9078 121.928 63.3717 121.349Z" fill="url(#paint0_linear_346_154560)"/>
<defs>
<linearGradient id="paint0_linear_346_154560" x1="212.126" y1="44.6526" x2="212.126" y2="121.347" gradientUnits="userSpaceOnUse">
<stop stop-color="#5BE584"/>
<stop offset="1" stop-color="#007B55"/>
</linearGradient>
</defs>
</svg>
