<svg width="96" height="96" viewBox="0 0 96 96" fill="none" xmlns="http://www.w3.org/2000/svg">
<path d="M80.4761 16.0003C78.4763 14.0003 31.9319 51.833 28.2075 59.652C28.2075 59.652 28.0521 88.901 33.4177 89.7454C36.3205 89.7454 41.6447 74.3352 42.7663 70.9898C42.9097 70.5622 43.1059 70.1856 43.3793 69.8268C55.0759 54.484 82.4529 17.9773 80.4761 16.0003Z" fill="#C55B11"/>
<path d="M11.1653 39.0989C8.65472 40.8149 8.55874 44.0419 10.8463 46.0457C13.9063 48.726 19.2181 53.0631 28.2051 59.6654C28.2051 59.6564 28.2052 59.6519 28.2052 59.6519C31.9296 51.8329 78.474 14.0002 80.4738 16.0002C82.4506 17.9772 55.0736 54.4839 43.377 69.8267C43.1036 70.1855 42.9074 70.5621 42.764 70.9897C41.6824 74.2158 36.6927 88.6612 33.735 89.6877C40.06 88.4685 46.3569 83.4096 52.1924 76.4228C59.5955 81.3099 64.8355 84.457 68.0209 86.2839C70.2495 87.5621 72.9833 87.0873 74.1549 84.8009C80.9195 71.5993 88.5423 32.4781 89.9761 11.9828C90.2073 8.67713 87.5291 6.03095 84.2695 6.62737C63.9743 10.3409 25.0553 29.6039 11.1653 39.0989Z" fill="#DD6512"/>
<path d="M33.4154 89.7453C33.4155 89.7455 33.4152 89.7451 33.4154 89.7453Z" fill="#DD6512"/>
<g style="mix-blend-mode:overlay" filter="url(#filter0_i_352_66582)">
<path d="M11.1653 39.0989C8.65472 40.8149 8.55874 44.0419 10.8463 46.0457C13.9063 48.726 19.2181 53.0631 28.2051 59.6654C28.2051 59.6564 28.2052 59.6519 28.2052 59.6519C31.9296 51.8329 78.474 14.0002 80.4738 16.0002C82.4506 17.9772 55.0736 54.4839 43.377 69.8267C43.1036 70.1855 42.9074 70.5621 42.764 70.9897C41.6824 74.2158 36.6927 88.6612 33.735 89.6877C40.06 88.4685 46.3569 83.4096 52.1924 76.4228C59.5955 81.3099 64.8355 84.457 68.0209 86.2839C70.2495 87.5621 72.9833 87.0873 74.1549 84.8009C80.9195 71.5993 88.5423 32.4781 89.9761 11.9828C90.2073 8.67713 87.5291 6.03095 84.2695 6.62737C63.9743 10.3409 25.0553 29.6039 11.1653 39.0989Z" fill="white" fill-opacity="0.04"/>
<path d="M33.4154 89.7453C33.4155 89.7455 33.4152 89.7451 33.4154 89.7453Z" fill="white" fill-opacity="0.04"/>
</g>
<defs>
<filter id="filter0_i_352_66582" x="7.20312" y="4.54297" width="82.7852" height="85.2024" filterUnits="userSpaceOnUse" color-interpolation-filters="sRGB">
<feFlood flood-opacity="0" result="BackgroundImageFix"/>
<feBlend mode="normal" in="SourceGraphic" in2="BackgroundImageFix" result="shape"/>
<feColorMatrix in="SourceAlpha" type="matrix" values="0 0 0 0 0 0 0 0 0 0 0 0 0 0 0 0 0 0 127 0" result="hardAlpha"/>
<feOffset dx="-2" dy="-2"/>
<feGaussianBlur stdDeviation="2"/>
<feComposite in2="hardAlpha" operator="arithmetic" k2="-1" k3="1"/>
<feColorMatrix type="matrix" values="0 0 0 0 0 0 0 0 0 0 0 0 0 0 0 0 0 0 0.4 0"/>
<feBlend mode="normal" in2="shape" result="effect1_innerShadow_352_66582"/>
</filter>
</defs>
</svg>
