<svg width="34" height="29" viewBox="0 0 34 29" fill="none" xmlns="http://www.w3.org/2000/svg">
<path d="M33.4987 14C33.4987 13.8166 33.3987 13.6333 33.3487 13.45C33.2716 13.1265 33.1713 12.8091 33.0487 12.5C32.9654 12.3 32.8487 12.1 32.7487 11.8833C32.6487 11.6666 32.4987 11.3833 32.3487 11.15C32.1987 10.9166 31.9987 10.8 31.9987 10.6666C31.9987 10.5333 31.6654 10.25 31.482 10.05C31.2987 9.84997 31.132 9.71663 30.9487 9.54997L30.332 8.99997L29.732 8.59997C29.4965 8.45583 29.2515 8.32776 28.9987 8.21663L28.3487 7.91663C28.0765 7.81581 27.7981 7.73231 27.5154 7.66663C27.2914 7.60074 27.063 7.55062 26.832 7.51663L26.4487 7.3333C25.7686 5.36839 24.493 3.66433 22.7993 2.45824C21.1055 1.25214 19.078 0.604004 16.9987 0.604004C14.9194 0.604004 12.8919 1.25214 11.1981 2.45824C9.50442 3.66433 8.22877 5.36839 7.5487 7.3333L7.2487 7.41663C7.0177 7.45062 6.78936 7.50074 6.56537 7.56663C6.28259 7.63231 6.00426 7.71581 5.73203 7.81663L5.08203 8.11663C4.82924 8.22776 4.58424 8.35583 4.3487 8.49997L3.7487 8.99997L3.13203 9.51663C2.9487 9.6833 2.76536 9.8333 2.5987 10.0166C2.43203 10.2 2.2487 10.4333 2.08203 10.6333C1.91536 10.8333 1.78203 11.0166 1.6487 11.2333C1.51536 11.45 1.38203 11.7166 1.2487 11.9666C1.11536 12.2166 1.03203 12.3833 0.948698 12.5833C0.826101 12.8924 0.725844 13.2099 0.648698 13.5333C0.648698 13.7166 0.532031 13.9 0.498698 14.0833C0.394959 14.6049 0.339171 15.1349 0.332031 15.6666C0.339844 16.1755 0.390018 16.6828 0.482031 17.1833C0.482031 17.35 0.565365 17.5 0.598698 17.6666C0.681077 17.9941 0.781225 18.3168 0.898698 18.6333L1.0987 19.1166C1.24541 19.438 1.41242 19.7498 1.5987 20.05L1.83203 20.4166C1.85601 20.4633 1.88389 20.5079 1.91537 20.55L1.9987 20.6666C2.77492 21.7016 3.78146 22.5416 4.93859 23.1202C6.09572 23.6988 7.37166 24 8.66537 24H13.6654V21.7166C13.159 22.0104 12.5841 22.1656 11.9987 22.1666C11.0958 22.1582 10.2329 21.7927 9.5987 21.15C9.29418 20.8349 9.05476 20.463 8.89412 20.0554C8.73349 19.6477 8.65479 19.2124 8.66253 18.7744C8.67027 18.3363 8.7643 17.904 8.93923 17.5023C9.11417 17.1006 9.36658 16.7374 9.68203 16.4333L14.682 11.6C15.3041 11.0004 16.1347 10.6657 16.9987 10.6666C17.8813 10.6704 18.7265 11.024 19.3487 11.65L24.3487 16.65C24.9695 17.2745 25.318 18.1193 25.318 19C25.318 19.8806 24.9695 20.7254 24.3487 21.35C23.7265 21.9759 22.8813 22.3296 21.9987 22.3333C21.4124 22.3388 20.8359 22.1832 20.332 21.8833V24H25.332C26.6257 24 27.9017 23.6988 29.0588 23.1202C30.2159 22.5416 31.2225 21.7016 31.9987 20.6666L32.082 20.5833C32.1135 20.5413 32.1414 20.4967 32.1654 20.45L32.3987 20.0833C32.585 19.7831 32.752 19.4714 32.8987 19.15L33.0987 18.6666C33.2162 18.3501 33.3163 18.0274 33.3987 17.7C33.3987 17.5333 33.482 17.3833 33.5154 17.2166C33.6092 16.7052 33.6594 16.1866 33.6654 15.6666C33.6634 15.107 33.6076 14.5489 33.4987 14Z" fill="#ADADAD"/>
<path d="M18.182 12.8166C17.8705 12.5113 17.4516 12.3402 17.0154 12.3402C16.5791 12.3402 16.1602 12.5113 15.8487 12.8166L10.8487 17.65C10.6719 17.7959 10.527 17.9767 10.4232 18.1812C10.3195 18.3857 10.259 18.6093 10.2456 18.8382C10.2323 19.0671 10.2662 19.2963 10.3455 19.5115C10.4247 19.7266 10.5475 19.9231 10.7061 20.0887C10.8648 20.2542 11.0559 20.3852 11.2675 20.4736C11.4791 20.5619 11.7066 20.6056 11.9359 20.6019C12.1651 20.5983 12.3912 20.5474 12.5998 20.4524C12.8085 20.3575 12.9954 20.2204 13.1487 20.05L15.332 17.9333V27.3333C15.332 27.7753 15.5076 28.1993 15.8202 28.5118C16.1327 28.8244 16.5567 29 16.9987 29C17.4407 29 17.8647 28.8244 18.1772 28.5118C18.4898 28.1993 18.6654 27.7753 18.6654 27.3333V18.0166L20.8154 20.1833C20.9703 20.3395 21.1546 20.4635 21.3577 20.5481C21.5608 20.6327 21.7787 20.6763 21.9987 20.6763C22.2187 20.6763 22.4366 20.6327 22.6397 20.5481C22.8428 20.4635 23.0271 20.3395 23.182 20.1833C23.3382 20.0284 23.4622 19.844 23.5469 19.6409C23.6315 19.4378 23.675 19.22 23.675 19C23.675 18.7799 23.6315 18.5621 23.5469 18.359C23.4622 18.1559 23.3382 17.9716 23.182 17.8166L18.182 12.8166Z" fill="#ADADAD"/>
</svg>
