<svg width="604" height="454" viewBox="0 0 604 454" fill="none" xmlns="http://www.w3.org/2000/svg">
<g opacity="0.2">
<path opacity="0.64" fill-rule="evenodd" clip-rule="evenodd" d="M0 250.632C0 302.799 18.8063 350.336 49.7533 386.263C85.2564 427.492 136.74 453.413 194.126 453.5C219.207 453.537 243.188 448.609 265.216 439.612C276.606 434.959 289.353 435.493 300.385 441.006C313.324 447.465 327.814 451.086 343.114 451.086C349.434 451.086 355.624 450.464 361.611 449.282C378.7 445.922 394.252 437.97 407.024 426.708C415.05 419.627 425.33 416.068 435.836 416.08H436.015C470.731 416.08 502.978 405.092 529.751 386.263C553.686 369.451 573.232 346.378 586.254 319.288C597.608 295.681 604 269.013 604 240.789C604 143.984 528.784 65.4972 436.015 65.4972C426.557 65.4972 417.292 66.3307 408.252 67.886C384.317 27.4536 341.455 0.5 292.561 0.5C271.917 0.5 252.347 5.30392 234.828 13.9154C218.169 22.0783 203.356 33.6776 191.239 47.8133C150.096 48.4978 112.052 62.5232 80.9146 85.93C31.9006 122.754 0 182.81 0 250.632Z" fill="url(#paint0_linear_61_148132)"/>
</g>
<path opacity="0.24" fill-rule="evenodd" clip-rule="evenodd" d="M137.439 123.073L138.461 125.373L138.437 125.384L138.359 125.418C138.29 125.45 138.185 125.497 138.048 125.56C137.772 125.685 137.362 125.874 136.829 126.124L135.761 123.845C136.302 123.591 136.72 123.399 137.003 123.27C137.145 123.205 137.253 123.156 137.326 123.123L137.409 123.086L137.439 123.073ZM128.919 127.198C130.174 126.56 131.312 125.993 132.317 125.5L133.426 127.759C132.431 128.247 131.304 128.809 130.06 129.442L128.919 127.198ZM122.18 130.733C123.35 130.1 124.47 129.505 125.533 128.948L126.702 131.176C125.648 131.729 124.537 132.32 123.375 132.947L122.18 130.733ZM115.544 134.416C116.677 133.769 117.782 133.148 118.853 132.554L120.074 134.754C119.011 135.344 117.915 135.96 116.79 136.602L115.544 134.416ZM108.96 138.272C110.075 137.601 111.172 136.951 112.247 136.321L113.518 138.493C112.452 139.118 111.364 139.763 110.257 140.428L108.96 138.272ZM102.52 142.249C103.604 141.561 104.677 140.891 105.735 140.237L107.058 142.378C106.007 143.027 104.943 143.692 103.868 144.374L102.52 142.249ZM96.1467 146.403C97.2092 145.691 98.2648 144.994 99.3119 144.311L100.686 146.42C99.6476 147.097 98.6008 147.788 97.5473 148.494L96.1467 146.403ZM89.8828 150.719C90.9284 149.978 91.971 149.249 93.0088 148.534L94.4366 150.607C93.4079 151.316 92.3747 152.037 91.3386 152.772L89.8828 150.719ZM83.7518 155.199C84.7702 154.432 85.7886 153.677 86.8055 152.934L88.29 154.966C87.2827 155.702 86.2742 156.45 85.2658 157.209L83.7518 155.199ZM77.7479 159.867C78.7381 159.072 79.7311 158.287 80.7255 157.514L82.2702 159.501C81.286 160.266 80.3035 161.042 79.324 161.829L77.7479 159.867ZM71.895 164.734C72.8579 163.904 73.8261 163.085 74.7984 162.277L76.4072 164.213C75.4459 165.012 74.4889 165.821 73.5375 166.64L71.895 164.734ZM66.2192 169.811C67.1499 168.945 68.0885 168.09 69.0338 167.244L70.7114 169.12C69.7779 169.955 68.8514 170.8 67.933 171.654L66.2192 169.811ZM60.7498 175.114C61.6422 174.211 62.5451 173.317 63.4571 172.433L65.2087 174.24C64.3094 175.111 63.4196 175.992 62.5405 176.883L60.7498 175.114ZM55.5199 180.666C56.368 179.72 57.2294 178.784 58.1026 177.857L59.9339 179.584C59.0745 180.495 58.2272 181.416 57.3934 182.346L55.5199 180.666ZM50.5757 186.482C51.3719 185.491 52.1844 184.509 53.0116 183.536L54.9287 185.167C54.1163 186.122 53.3189 187.086 52.5378 188.058L50.5757 186.482ZM45.9743 192.583C46.7073 191.544 47.4597 190.514 48.2299 189.494L50.2385 191.01C49.484 192.009 48.7476 193.017 48.0306 194.033L45.9743 192.583ZM41.7855 198.981C42.442 197.894 43.121 196.816 43.8212 195.747L45.9263 197.126C45.2425 198.17 44.5799 199.222 43.9399 200.282L41.7855 198.981ZM38.0863 205.7C38.6535 204.56 39.2471 203.428 39.8656 202.306L42.0697 203.52C41.4678 204.613 40.8907 205.713 40.3398 206.821L38.0863 205.7ZM34.9844 212.727C35.4447 211.533 35.9354 210.349 36.455 209.174L38.7568 210.191C38.2531 211.331 37.7778 212.478 37.3325 213.632L34.9844 212.727ZM32.5903 220.035C32.924 218.796 33.292 217.566 33.6928 216.345L36.084 217.13C35.697 218.309 35.342 219.496 35.0204 220.689L32.5903 220.035ZM31.0137 227.576C31.203 226.303 31.4301 225.037 31.6935 223.78L34.1567 224.296C33.9033 225.506 33.6849 226.722 33.503 227.946L31.0137 227.576ZM30.4252 233.336C30.4611 232.69 30.5071 232.046 30.5629 231.404L33.0701 231.622C33.0165 232.238 32.9725 232.856 32.938 233.475C32.9033 234.1 32.8882 234.716 32.8923 235.323L30.3757 235.341C30.3712 234.68 30.3876 234.011 30.4252 233.336ZM31.4601 243.086C31.104 241.83 30.8333 240.541 30.6513 239.218L33.1445 238.875C33.3106 240.082 33.5573 241.256 33.8814 242.4L31.4601 243.086ZM34.6038 250.258C33.9194 249.129 33.3121 247.967 32.7864 246.771L35.0903 245.758C35.5702 246.85 36.1262 247.915 36.7557 248.952L34.6038 250.258ZM39.3559 256.385C38.4471 255.438 37.5992 254.462 36.8159 253.457L38.8006 251.91C39.5282 252.843 40.3196 253.754 41.1726 254.644L39.3559 256.385ZM45.147 261.479C44.1152 260.703 43.1291 259.905 42.1913 259.086L43.8471 257.191C44.7358 257.967 45.674 258.726 46.6599 259.468L45.147 261.479ZM51.5513 265.708C50.4326 265.055 49.35 264.385 48.3054 263.698L49.6884 261.595C50.6934 262.256 51.738 262.903 52.8204 263.535L51.5513 265.708ZM58.3108 269.261C57.1424 268.706 56.0025 268.138 54.8929 267.556L56.0614 265.327C57.1401 265.893 58.2502 266.446 59.3904 266.987L58.3108 269.261ZM65.2838 272.291C64.0885 271.814 62.9161 271.327 61.7678 270.829L62.7693 268.52C63.8934 269.008 65.0426 269.486 66.2158 269.953L65.2838 272.291ZM436.313 269.027C436.619 269.154 437.065 269.345 437.631 269.602L436.59 271.893C436.05 271.648 435.629 271.468 435.347 271.351C435.205 271.292 435.098 271.249 435.028 271.221L434.951 271.19L434.933 271.184L434.93 271.182C434.93 271.183 434.93 271.182 435.379 270.007C435.827 268.831 435.827 268.831 435.827 268.831L435.828 268.832L435.831 268.832L435.838 268.835L435.864 268.845C435.886 268.854 435.918 268.866 435.959 268.883C436.041 268.915 436.159 268.963 436.313 269.027ZM72.3952 274.916C71.1866 274.502 69.9963 274.08 68.8256 273.648L69.6959 271.287C70.8475 271.711 72.0193 272.127 73.2104 272.535L72.3952 274.916ZM441.105 271.311C442.121 271.846 443.254 272.472 444.48 273.194L443.202 275.362C442.013 274.662 440.915 274.055 439.933 273.538L441.105 271.311ZM79.6042 277.222C78.3898 276.859 77.1904 276.488 76.0067 276.11L76.7723 273.713C77.9406 274.086 79.1253 274.452 80.3256 274.811L79.6042 277.222ZM447.749 275.222C448.771 275.888 449.832 276.61 450.922 277.391L449.456 279.437C448.398 278.678 447.367 277.977 446.374 277.33L447.749 275.222ZM86.8869 279.272C85.6706 278.95 84.4665 278.621 83.2754 278.286L83.9563 275.864C85.135 276.195 86.3271 276.52 87.5318 276.839L86.8869 279.272ZM94.2265 281.114C92.9978 280.822 91.7791 280.524 90.5712 280.222L91.183 277.78C92.3805 278.081 93.5893 278.375 94.8085 278.665L94.2265 281.114ZM101.61 282.783C100.366 282.515 99.131 282.243 97.9048 281.966L98.4595 279.511C99.677 279.786 100.904 280.057 102.139 280.323L101.61 282.783ZM454.015 279.714C454.992 280.482 455.982 281.295 456.979 282.155L455.336 284.061C454.369 283.227 453.408 282.438 452.459 281.692L454.015 279.714ZM109 284.304C107.754 284.059 106.514 283.809 105.283 283.556L105.79 281.091C107.014 281.343 108.247 281.591 109.486 281.835L109 284.304ZM116.4 285.703C115.159 285.478 113.924 285.249 112.694 285.017L113.162 282.544C114.385 282.775 115.615 283.003 116.85 283.227L116.4 285.703ZM123.829 287.006C122.591 286.796 121.358 286.584 120.129 286.369L120.563 283.89C121.787 284.104 123.016 284.316 124.249 284.524L123.829 287.006ZM459.842 284.74C460.759 285.607 461.675 286.513 462.586 287.46L460.772 289.205C459.89 288.287 459.002 287.408 458.113 286.568L459.842 284.74ZM131.276 288.226C130.031 288.029 128.79 287.828 127.552 287.626L127.959 285.142C129.193 285.344 130.43 285.544 131.671 285.741L131.276 288.226ZM138.724 289.379C137.478 289.191 136.235 289.001 134.993 288.809L135.378 286.322C136.616 286.514 137.857 286.703 139.099 286.89L138.724 289.379ZM146.174 290.477C144.931 290.298 143.689 290.117 142.448 289.934L142.814 287.444C144.053 287.626 145.293 287.807 146.533 287.986L146.174 290.477ZM153.634 291.535C152.391 291.362 151.147 291.187 149.904 291.01L150.257 288.519C151.499 288.695 152.74 288.869 153.982 289.043L153.634 291.535ZM161.092 292.564C159.85 292.394 158.606 292.224 157.361 292.052L157.705 289.559C158.949 289.73 160.191 289.901 161.432 290.07L161.092 292.564ZM465.187 290.299C466.018 291.252 466.84 292.242 467.649 293.267L465.672 294.825C464.89 293.833 464.095 292.876 463.29 291.953L465.187 290.299ZM168.547 293.574C167.309 293.407 166.069 293.24 164.826 293.071L165.164 290.577C166.406 290.746 167.646 290.913 168.884 291.08L168.547 293.574ZM176.015 294.582C174.775 294.414 173.532 294.247 172.285 294.078L172.622 291.584C173.868 291.752 175.112 291.92 176.352 292.088L176.015 294.582ZM183.475 295.596C182.231 295.425 180.982 295.255 179.728 295.085L180.067 292.591C181.321 292.761 182.572 292.932 183.817 293.102L183.475 295.596ZM190.917 296.629C189.681 296.454 188.439 296.281 187.19 296.108L187.536 293.615C188.786 293.788 190.03 293.962 191.268 294.137L190.917 296.629ZM198.336 297.695C197.115 297.516 195.886 297.337 194.649 297.159L195.007 294.668C196.246 294.846 197.478 295.025 198.702 295.205L198.336 297.695ZM205.788 298.822C204.565 298.631 203.332 298.442 202.089 298.254L202.465 295.766C203.711 295.954 204.948 296.144 206.176 296.335L205.788 298.822ZM469.961 296.359C470.695 297.395 471.413 298.465 472.111 299.568L469.985 300.915C469.31 299.849 468.616 298.816 467.907 297.814L469.961 296.359ZM213.218 300.023C211.992 299.817 210.753 299.613 209.503 299.411L209.904 296.926C211.16 297.129 212.403 297.334 213.635 297.541L213.218 300.023ZM220.617 301.324C219.389 301.098 218.146 300.874 216.887 300.653L217.323 298.174C218.588 298.396 219.839 298.621 221.074 298.85L220.617 301.324ZM227.979 302.763C226.756 302.509 225.514 302.26 224.253 302.014L224.735 299.544C226.005 299.792 227.257 300.043 228.49 300.299L227.979 302.763ZM235.29 304.388C234.085 304.1 232.855 303.817 231.601 303.539L232.145 301.082C233.412 301.363 234.655 301.648 235.875 301.94L235.29 304.388ZM242.525 306.271C241.34 305.933 240.123 305.603 238.875 305.279L239.506 302.843C240.772 303.171 242.009 303.507 243.214 303.85L242.525 306.271ZM474.091 302.887C474.714 303.996 475.315 305.136 475.892 306.307L473.635 307.42C473.078 306.289 472.497 305.189 471.897 304.119L474.091 302.887ZM249.621 308.521C248.466 308.11 247.267 307.71 246.025 307.318L246.782 304.918C248.05 305.318 249.278 305.728 250.464 306.149L249.621 308.521ZM256.419 311.307C255.362 310.802 254.243 310.31 253.065 309.83L254.015 307.499C255.233 307.995 256.398 308.508 257.505 309.037L256.419 311.307ZM477.508 309.818C478.008 310.986 478.483 312.183 478.932 313.41L476.569 314.274C476.136 313.091 475.676 311.936 475.194 310.808L477.508 309.818ZM261.177 313.948C260.704 313.638 260.209 313.333 259.693 313.032L260.962 310.858C261.512 311.18 262.043 311.507 262.554 311.841C263.04 312.159 263.546 312.479 264.072 312.801L262.757 314.947C262.212 314.612 261.685 314.279 261.177 313.948ZM269.576 318.723C268.386 318.12 267.248 317.52 266.165 316.923L267.379 314.719C268.435 315.3 269.547 315.887 270.714 316.479L269.576 318.723ZM480.162 317.07C480.535 318.283 480.88 319.522 481.198 320.788L478.757 321.4C478.45 320.176 478.116 318.979 477.756 317.808L480.162 317.07ZM276.607 322.058C275.376 321.509 274.184 320.961 273.031 320.415L274.108 318.141C275.243 318.678 276.418 319.218 277.632 319.76L276.607 322.058ZM283.684 325.064C282.454 324.565 281.253 324.067 280.08 323.569L281.064 321.253C282.223 321.745 283.412 322.238 284.629 322.731L283.684 325.064ZM290.86 327.857C289.627 327.395 288.415 326.933 287.227 326.471L288.139 324.125C289.318 324.584 290.519 325.042 291.742 325.5L290.86 327.857ZM482.039 324.551C482.284 325.793 482.501 327.06 482.69 328.35L480.199 328.713C480.017 327.464 479.807 326.239 479.57 325.038L482.039 324.551ZM298.105 330.476C296.866 330.043 295.643 329.609 294.439 329.173L295.295 326.807C296.49 327.239 297.704 327.67 298.935 328.1L298.105 330.476ZM305.394 332.943C304.15 332.535 302.92 332.125 301.705 331.714L302.512 329.33C303.72 329.739 304.942 330.146 306.178 330.552L305.394 332.943ZM312.702 335.273C311.463 334.889 310.234 334.503 309.018 334.115L309.782 331.718C310.992 332.103 312.214 332.487 313.447 332.869L312.702 335.273ZM483.154 332.174C483.216 332.816 483.271 333.462 483.319 334.115C483.372 334.836 483.385 335.542 483.36 336.232L480.845 336.138C480.867 335.545 480.856 334.932 480.809 334.299C480.763 333.666 480.709 333.039 480.649 332.418L483.154 332.174ZM320.054 337.487C318.818 337.125 317.59 336.761 316.373 336.394L317.098 333.984C318.31 334.349 319.531 334.712 320.761 335.072L320.054 337.487ZM327.446 339.594C326.211 339.252 324.984 338.907 323.764 338.559L324.453 336.139C325.668 336.485 326.889 336.828 328.118 337.169L327.446 339.594ZM334.873 341.598C333.633 341.273 332.399 340.944 331.171 340.613L331.826 338.183C333.049 338.513 334.278 338.84 335.512 339.164L334.873 341.598ZM482.703 340.293C482.302 341.636 481.726 342.892 480.985 344.062L478.859 342.717C479.478 341.738 479.958 340.692 480.292 339.573L482.703 340.293ZM342.329 343.501C341.08 343.191 339.835 342.878 338.594 342.561L339.217 340.123C340.452 340.438 341.691 340.75 342.935 341.059L342.329 343.501ZM349.8 345.303C348.548 345.01 347.299 344.713 346.054 344.413L346.644 341.966C347.884 342.265 349.127 342.56 350.373 342.852L349.8 345.303ZM357.291 347.004C356.04 346.728 354.79 346.449 353.542 346.165L354.099 343.711C355.341 343.993 356.586 344.272 357.832 344.546L357.291 347.004ZM364.812 348.605C363.557 348.347 362.303 348.084 361.05 347.817L361.574 345.356C362.822 345.622 364.07 345.883 365.319 346.14L364.812 348.605ZM478.368 347.237C477.419 348.147 476.349 348.983 475.172 349.749L473.799 347.64C474.86 346.95 475.803 346.21 476.627 345.42L478.368 347.237ZM372.354 350.102C371.095 349.861 369.836 349.616 368.577 349.366L369.067 346.898C370.32 347.147 371.573 347.391 372.826 347.63L372.354 350.102ZM379.908 351.488C378.651 351.267 377.392 351.041 376.132 350.81L376.586 348.334C377.84 348.565 379.093 348.79 380.344 349.01L379.908 351.488ZM471.64 351.699C470.494 352.236 469.278 352.73 467.995 353.181L467.16 350.807C468.371 350.381 469.509 349.919 470.571 349.421L471.64 351.699ZM387.493 352.761C386.235 352.56 384.973 352.353 383.709 352.141L384.125 349.659C385.383 349.87 386.638 350.076 387.889 350.275L387.493 352.761ZM395.107 353.91C393.843 353.73 392.574 353.544 391.301 353.352L391.676 350.864C392.942 351.055 394.204 351.24 395.461 351.418L395.107 353.91ZM464.267 354.328C463.036 354.658 461.755 354.958 460.429 355.228L459.927 352.762C461.207 352.501 462.437 352.213 463.615 351.897L464.267 354.328ZM402.74 354.922C401.467 354.766 400.188 354.602 398.903 354.432L399.234 351.937C400.511 352.106 401.782 352.269 403.047 352.424L402.74 354.922ZM410.386 355.783C409.111 355.653 407.829 355.515 406.538 355.37L406.82 352.869C408.102 353.014 409.375 353.15 410.641 353.279L410.386 355.783ZM456.603 355.91C455.358 356.101 454.08 356.271 452.769 356.42L452.485 353.919C453.765 353.774 455.01 353.609 456.22 353.422L456.603 355.91ZM418.046 356.471C416.777 356.373 415.498 356.266 414.21 356.15L414.436 353.643C415.714 353.758 416.982 353.865 418.24 353.962L418.046 356.471ZM425.72 356.962C424.459 356.899 423.185 356.827 421.899 356.744L422.06 354.233C423.334 354.315 424.596 354.386 425.845 354.448L425.72 356.962ZM448.865 356.794C447.618 356.893 446.345 356.975 445.049 357.041L444.922 354.528C446.195 354.463 447.444 354.382 448.666 354.286L448.865 356.794ZM433.413 357.219C432.158 357.198 430.888 357.167 429.604 357.124L429.688 354.608C430.958 354.651 432.214 354.682 433.453 354.702L433.413 357.219ZM441.128 357.189C439.878 357.221 438.609 357.239 437.322 357.244L437.313 354.727C438.583 354.722 439.833 354.704 441.064 354.673L441.128 357.189Z" fill="#AF500E"/>
<path d="M60.3282 154.735L121.091 344.716C122.096 347.783 124.108 350.422 126.799 352.205C129.491 353.987 132.705 354.808 135.921 354.538L215.606 347.793L401.856 331.883C403.728 331.738 405.553 331.225 407.226 330.371C408.899 329.52 410.387 328.344 411.604 326.914C412.821 325.484 413.743 323.827 414.318 322.039C414.892 320.251 415.107 318.367 414.951 316.496C414.818 315.152 414.51 313.831 414.034 312.567L399.138 273.281L372.194 201.256L351.307 145.6C350.282 142.878 348.451 140.533 346.059 138.878C343.667 137.222 340.827 136.336 337.917 136.336H73.9145C72.0401 136.336 70.1839 136.705 68.4521 137.422C66.7204 138.14 65.1468 139.192 63.8213 140.517C62.4959 141.842 61.4444 143.416 60.7272 145.147C60.0098 146.879 59.6406 148.735 59.6406 150.61C59.6601 152.011 59.8919 153.402 60.3282 154.735Z" fill="white"/>
<path d="M60.3282 154.735L121.091 344.716C122.096 347.783 124.108 350.422 126.799 352.205C129.491 353.987 132.705 354.808 135.921 354.538L215.606 347.793L401.856 331.883C403.728 331.738 405.553 331.225 407.226 330.371C408.899 329.52 410.387 328.344 411.604 326.914C412.821 325.484 413.743 323.827 414.318 322.039C414.892 320.251 415.107 318.367 414.951 316.496C414.818 315.152 414.51 313.831 414.034 312.567L399.138 273.281L372.194 201.256L351.307 145.6C350.282 142.878 348.451 140.533 346.059 138.878C343.667 137.222 340.827 136.336 337.917 136.336H73.9145C72.0401 136.336 70.1839 136.705 68.4521 137.422C66.7204 138.14 65.1468 139.192 63.8213 140.517C62.4959 141.842 61.4444 143.416 60.7272 145.147C60.0098 146.879 59.6406 148.735 59.6406 150.61C59.6601 152.011 59.8919 153.402 60.3282 154.735Z" fill="white"/>
<path d="M214.64 347.875L135.921 354.538C132.704 354.808 129.491 353.987 126.799 352.205C124.108 350.422 122.096 347.783 121.091 344.716L60.3282 154.735C59.8919 153.402 59.6601 152.011 59.6406 150.61C59.6406 148.735 60.0098 146.879 60.7272 145.147C61.4444 143.416 62.4959 141.842 63.8214 140.517C65.1468 139.192 66.7204 138.14 68.4521 137.422C70.1839 136.705 72.0401 136.336 73.9145 136.336H146.209L214.64 347.875Z" fill="url(#paint1_linear_61_148132)"/>
<path d="M286.747 241.119C290.035 240.915 292.243 237.66 291.218 234.529L280.543 201.945C279.837 199.793 277.781 198.376 275.519 198.484L197.979 202.21C194.624 202.371 192.365 205.711 193.464 208.884L205.101 242.503C205.84 244.639 207.913 246.02 210.17 245.879L286.747 241.119Z" fill="#F4F6F8"/>
<path d="M308.137 301.519C311.425 301.315 313.634 298.06 312.608 294.929L301.934 262.345C301.228 260.193 299.172 258.776 296.909 258.884L219.37 262.61C216.015 262.771 213.756 266.111 214.855 269.284L226.492 302.903C227.23 305.039 229.304 306.42 231.56 306.279L308.137 301.519Z" fill="#DFE3E8"/>
<g opacity="0.4" filter="url(#filter0_f_61_148132)">
<path d="M318.372 169.794L338.439 236.351C338.735 237.423 339.378 238.367 340.267 239.037C341.154 239.706 342.238 240.062 343.351 240.052L393.129 238.614C394.856 238.565 396.019 236.832 395.414 235.216L370.246 168.021C369.898 167.089 369.031 166.451 368.038 166.392L322.856 163.738C322.114 163.707 321.374 163.858 320.703 164.178C320.031 164.499 319.45 164.979 319.007 165.576C318.564 166.174 318.275 166.871 318.164 167.606C318.053 168.342 318.125 169.093 318.372 169.794Z" fill="#919EAB"/>
</g>
<path d="M415.354 219.983L394.598 161.217C394.28 160.274 393.691 159.444 392.906 158.834C392.119 158.223 391.172 157.856 390.179 157.78L302.702 152.607C301.957 152.584 301.217 152.741 300.546 153.066C299.876 153.391 299.294 153.873 298.85 154.47C298.406 155.069 298.114 155.765 297.998 156.501C297.881 157.237 297.946 157.99 298.183 158.696L318.252 225.287C318.552 226.359 319.194 227.304 320.081 227.977C320.967 228.651 322.049 229.016 323.162 229.019L411.36 226.366C412.096 226.324 412.811 226.106 413.445 225.73C414.081 225.353 414.616 224.831 415.007 224.207C415.398 223.582 415.634 222.872 415.694 222.137C415.754 221.402 415.637 220.664 415.354 219.983Z" fill="white"/>
<path d="M371.679 210.611C372.281 212.167 372.583 212.946 373.226 213.387C373.869 213.828 374.703 213.828 376.373 213.828H376.775C380.108 213.828 381.774 213.828 382.524 212.734C383.273 211.64 382.672 210.086 381.47 206.978L373.383 186.074C372.78 184.517 372.478 183.739 371.835 183.297C371.192 182.857 370.358 182.857 368.688 182.857H368.285C364.953 182.857 363.287 182.857 362.537 183.952C361.787 185.045 362.389 186.599 363.591 189.706L371.679 210.611Z" fill="#AF500E"/>
<g opacity="0.48">
<path d="M385.463 210.602C386.064 212.164 386.365 212.944 387.008 213.385C387.652 213.827 388.488 213.827 390.16 213.827H390.555C393.889 213.827 395.555 213.827 396.305 212.734C397.055 211.639 396.453 210.085 395.249 206.978L393.253 201.82C392.65 200.264 392.35 199.486 391.707 199.046C391.064 198.604 390.228 198.604 388.56 198.604H388.176C384.849 198.604 383.185 198.604 382.435 199.696C381.685 200.788 382.283 202.341 383.478 205.445L385.463 210.602Z" fill="url(#paint2_linear_61_148132)"/>
<path d="M357.864 210.605C358.465 212.165 358.766 212.945 359.409 213.387C360.053 213.828 360.889 213.828 362.561 213.828H362.957C366.289 213.828 367.957 213.828 368.705 212.734C369.455 211.639 368.854 210.085 367.651 206.977L364.247 198.186C363.644 196.63 363.344 195.852 362.701 195.412C362.058 194.971 361.222 194.971 359.554 194.971H359.172C355.844 194.971 354.181 194.971 353.431 196.063C352.681 197.156 353.28 198.708 354.476 201.814L357.864 210.605Z" fill="url(#paint3_linear_61_148132)"/>
<path d="M344.079 210.611C344.681 212.168 344.982 212.947 345.625 213.387C346.268 213.829 347.104 213.829 348.774 213.829H349.176C352.508 213.829 354.174 213.829 354.924 212.734C355.674 211.64 355.073 210.086 353.87 206.978L341.985 176.254C341.382 174.696 341.081 173.918 340.438 173.476C339.795 173.036 338.96 173.036 337.29 173.036H336.887C333.555 173.036 331.889 173.036 331.139 174.129C330.389 175.224 330.991 176.777 332.193 179.885L344.079 210.611Z" fill="url(#paint4_linear_61_148132)"/>
<path d="M330.263 210.609C330.866 212.168 331.167 212.947 331.81 213.387C332.453 213.829 333.288 213.829 334.958 213.829H335.363C338.694 213.829 340.359 213.829 341.109 212.735C341.859 211.642 341.259 210.088 340.058 206.981L323.782 164.862C323.179 163.304 322.878 162.525 322.235 162.085C321.592 161.643 320.757 161.643 319.087 161.643H318.682C315.351 161.643 313.686 161.643 312.936 162.737C312.186 163.83 312.786 165.384 313.987 168.491L330.263 210.609Z" fill="url(#paint5_linear_61_148132)"/>
</g>
<g opacity="0.4">
<path fill-rule="evenodd" clip-rule="evenodd" d="M98.1734 195.756C96.8649 190.908 97.5128 185.74 99.9776 181.365C102.442 176.989 106.527 173.758 111.352 172.365C116.176 170.972 121.355 171.529 125.772 173.918C130.19 176.306 133.492 180.334 134.969 185.133C136.445 189.933 135.978 195.121 133.668 199.579C131.356 204.037 127.388 207.41 122.615 208.97C117.841 210.53 112.647 210.153 108.149 207.92C103.651 205.688 100.21 201.778 98.5663 197.033L98.3699 196.41L98.1734 195.756ZM117.293 190.485L112.775 175.983C114.05 175.589 115.37 175.359 116.703 175.294C120.037 175.17 123.32 176.143 126.048 178.065C128.774 179.988 130.794 182.753 131.796 185.935C132.188 187.211 132.42 188.53 132.483 189.863C132.524 191.194 132.403 192.524 132.123 193.825C131.545 196.424 130.278 198.822 128.456 200.766C126.66 202.741 124.369 204.202 121.819 204.996C119.27 205.791 116.554 205.89 113.953 205.283C112.672 204.984 111.43 204.533 110.254 203.94C109.072 203.316 107.972 202.546 106.98 201.649C105.047 199.86 103.604 197.606 102.79 195.102L117.293 190.485Z" fill="white"/>
<path fill-rule="evenodd" clip-rule="evenodd" d="M140.047 317.313C139.061 312.561 139.907 307.61 142.416 303.455C144.925 299.3 148.912 296.246 153.576 294.905C158.242 293.564 163.241 294.034 167.574 296.223C171.906 298.411 175.254 302.156 176.942 306.707V307.329C176.942 307.525 176.942 307.754 177.171 307.95C178.467 312.612 177.958 317.593 175.743 321.895C173.528 326.197 169.771 329.505 165.223 331.159C160.676 332.812 155.673 332.69 151.211 330.815C146.75 328.94 143.16 325.451 141.159 321.046C141.061 320.735 140.971 320.424 140.881 320.113C140.791 319.802 140.701 319.49 140.603 319.18C140.524 318.93 140.456 318.681 140.388 318.432C140.286 318.059 140.184 317.687 140.047 317.313ZM154.123 298.816L158.837 313.254L158.936 313.221L163.65 327.692C165.527 327.066 167.263 326.075 168.756 324.778C170.251 323.479 171.476 321.9 172.359 320.13C172.959 318.949 173.4 317.694 173.668 316.397C173.957 315.109 174.067 313.786 173.995 312.469C173.824 309.127 172.551 305.934 170.38 303.389C168.206 300.843 165.254 299.087 161.98 298.391C159.368 297.86 156.663 298.007 154.123 298.816Z" fill="white"/>
<path fill-rule="evenodd" clip-rule="evenodd" d="M126.097 236.448C122.493 240.052 120.468 244.939 120.468 250.037V251.378C120.468 256.476 122.493 261.363 126.097 264.967C129.7 268.572 134.589 270.597 139.685 270.597C144.783 270.597 149.67 268.572 153.274 264.967C156.878 261.363 158.903 256.476 158.903 251.378V250.037C158.903 244.939 156.878 240.052 153.274 236.448C149.67 232.844 144.783 230.819 139.685 230.819C134.589 230.819 129.7 232.844 126.097 236.448ZM139.423 250.658V235.468C142.081 235.488 144.687 236.199 146.986 237.53C148.188 238.177 149.29 238.994 150.26 239.953C152.154 241.833 153.517 244.181 154.211 246.758C154.905 249.335 154.903 252.05 154.209 254.627C153.514 257.203 152.15 259.551 150.254 261.43C148.359 263.308 146.001 264.652 143.417 265.326C140.848 266.045 138.13 266.045 135.56 265.326C134.279 264.995 133.047 264.499 131.893 263.852L139.423 250.658Z" fill="white"/>
</g>
<path d="M190.202 96.1333H137.918L153.83 105.857L190.202 96.1333Z" fill="url(#paint6_linear_61_148132)"/>
<path d="M190.202 96.1333L156.644 111.651L162.308 131.425L190.202 96.1333Z" fill="url(#paint7_linear_61_148132)"/>
<path d="M147.772 120.392L156.644 111.651L190.202 96.1333L147.772 120.392Z" fill="url(#paint8_linear_61_148132)"/>
<path d="M147.773 120.392L156.646 111.651L190.203 96.1333L153.831 105.857L147.773 120.392Z" fill="#AF500E"/>
<defs>
<filter id="filter0_f_61_148132" x="298.113" y="143.734" width="117.461" height="116.318" filterUnits="userSpaceOnUse" color-interpolation-filters="sRGB">
<feFlood flood-opacity="0" result="BackgroundImageFix"/>
<feBlend mode="normal" in="SourceGraphic" in2="BackgroundImageFix" result="shape"/>
<feGaussianBlur stdDeviation="10" result="effect1_foregroundBlur_61_148132"/>
</filter>
<linearGradient id="paint0_linear_61_148132" x1="413.753" y1="534.074" x2="635.952" y2="33.277" gradientUnits="userSpaceOnUse">
<stop stop-color="#DD6512"/>
<stop offset="1" stop-color="#DD6512" stop-opacity="0.01"/>
</linearGradient>
<linearGradient id="paint1_linear_61_148132" x1="59.6406" y1="136.336" x2="59.6406" y2="354.588" gradientUnits="userSpaceOnUse">
<stop stop-color="#EC6C00"/>
<stop offset="1" stop-color="#C55B11"/>
</linearGradient>
<linearGradient id="paint2_linear_61_148132" x1="312.605" y1="161.643" x2="312.605" y2="213.829" gradientUnits="userSpaceOnUse">
<stop stop-color="#EC6C00"/>
<stop offset="1" stop-color="#C55B11"/>
</linearGradient>
<linearGradient id="paint3_linear_61_148132" x1="312.605" y1="161.643" x2="312.605" y2="213.829" gradientUnits="userSpaceOnUse">
<stop stop-color="#EC6C00"/>
<stop offset="1" stop-color="#C55B11"/>
</linearGradient>
<linearGradient id="paint4_linear_61_148132" x1="312.605" y1="161.643" x2="312.605" y2="213.829" gradientUnits="userSpaceOnUse">
<stop stop-color="#EC6C00"/>
<stop offset="1" stop-color="#C55B11"/>
</linearGradient>
<linearGradient id="paint5_linear_61_148132" x1="312.605" y1="161.643" x2="312.605" y2="213.829" gradientUnits="userSpaceOnUse">
<stop stop-color="#EC6C00"/>
<stop offset="1" stop-color="#C55B11"/>
</linearGradient>
<linearGradient id="paint6_linear_61_148132" x1="137.918" y1="96.1333" x2="137.918" y2="131.425" gradientUnits="userSpaceOnUse">
<stop stop-color="#EC6C00"/>
<stop offset="1" stop-color="#C55B11"/>
</linearGradient>
<linearGradient id="paint7_linear_61_148132" x1="137.918" y1="96.1333" x2="137.918" y2="131.425" gradientUnits="userSpaceOnUse">
<stop stop-color="#EC6C00"/>
<stop offset="1" stop-color="#C55B11"/>
</linearGradient>
<linearGradient id="paint8_linear_61_148132" x1="137.918" y1="96.1333" x2="137.918" y2="131.425" gradientUnits="userSpaceOnUse">
<stop stop-color="#EC6C00"/>
<stop offset="1" stop-color="#C55B11"/>
</linearGradient>
</defs>
</svg>
